solid OpenSCAD_Model
  facet normal 0 1 -0
    outer loop
      vertex 0 75.2667 0
      vertex -16.3 75.2667 3.8
      vertex 0 75.2667 3.8
    endloop
  endfacet
  facet normal 0 1 0
    outer loop
      vertex -16.3 75.2667 3.8
      vertex 0 75.2667 0
      vertex -16.3 75.2667 0
    endloop
  endfacet
  facet normal 0 -1 0
    outer loop
      vertex -16.3 0 0
      vertex 0 0 3.8
      vertex -16.3 0 3.8
    endloop
  endfacet
  facet normal 0 -1 -0
    outer loop
      vertex 0 0 3.8
      vertex -16.3 0 0
      vertex 0 0 0
    endloop
  endfacet
  facet normal 0 0 -1
    outer loop
      vertex -16.3 0 0
      vertex 0 75.2667 0
      vertex 0 0 0
    endloop
  endfacet
  facet normal -0 0 -1
    outer loop
      vertex 0 75.2667 0
      vertex -16.3 0 0
      vertex -16.3 75.2667 0
    endloop
  endfacet
  facet normal -1 0 0
    outer loop
      vertex -16.3 0 0
      vertex -16.3 75.2667 3.8
      vertex -16.3 75.2667 0
    endloop
  endfacet
  facet normal -1 -0 0
    outer loop
      vertex -16.3 75.2667 3.8
      vertex -16.3 0 0
      vertex -16.3 0 3.8
    endloop
  endfacet
  facet normal -0 0 1
    outer loop
      vertex -16.3 75.2667 3.8
      vertex 0 0 3.8
      vertex 0 75.2667 3.8
    endloop
  endfacet
  facet normal 0 0 1
    outer loop
      vertex 0 0 3.8
      vertex -16.3 75.2667 3.8
      vertex -16.3 0 3.8
    endloop
  endfacet
  facet normal 1 -0 0
    outer loop
      vertex 0 0 3.8
      vertex 0 75.2667 0
      vertex 0 75.2667 3.8
    endloop
  endfacet
  facet normal 1 0 0
    outer loop
      vertex 0 75.2667 0
      vertex 0 0 3.8
      vertex 0 0 0
    endloop
  endfacet
endsolid OpenSCAD_Model
